<?xml version="1.0" encoding="utf-8"?>
<!-- Generator: Adobe Illustrator 16.0.0, SVG Export Plug-In . SVG Version: 6.00 Build 0)  -->
<!DOCTYPE svg PUBLIC "-//W3C//DTD SVG 1.1//EN" "http://www.w3.org/Graphics/SVG/1.1/DTD/svg11.dtd">
<svg version="1.1" id="Layer_1" xmlns="http://www.w3.org/2000/svg" xmlns:xlink="http://www.w3.org/1999/xlink" x="0px" y="0px"
	 width="960px" height="560px" viewBox="0 0 960 560" enable-background="new 0 0 960 560" xml:space="preserve">
<g id="Layer_2">
	<circle fill="#F4F4F4" stroke="#043D21" stroke-width="3" cx="447.09" cy="274.588" r="200"/>
	<line fill="none" stroke="#006837" stroke-width="4" x1="729" y1="398" x2="732" y2="397"/>
	<g>
		<g>
			<path fill="#FFF100" stroke="#FF1D25" d="M286.485,326.05l0.027-0.856c0.083-1.432-0.329-2.86-1.209-4.21l-0.578-0.799
				l-0.106-0.188c-0.163-0.298-0.29-0.599-0.368-0.902c-0.245-1.016-0.021-2.044,0.669-3.002l1.51-2.168
				c0.734-1.095,0.929-2.272,0.573-3.417l-0.061-0.196l0.38,0.213c0.79,0.524,1.247,1.176,1.313,1.852
				c0.073,0.632,0,1.266-0.217,1.889c-0.378,1.012-0.819,2.021-1.318,3.017c-0.184,0.366-0.302,0.748-0.347,1.128
				c-0.018,0.159,0.012,0.316,0.101,0.471c0.797,1.43,1.137,2.925,1.003,4.414C287.793,324.252,287.327,325.197,286.485,326.05"/>
			<path fill="#FFF100" stroke="#FF1D25" d="M299.225,337.456c0.663,0.444,1.583,0.759,2.614,0.896
				c1.581,0.203,3.231,0.182,4.785-0.063c1.932-0.266,3.704-0.793,5.141-1.535l0.184-0.252c0.222-0.357,0.413-0.719,0.573-1.083
				c0.051-0.111,0.118-0.227,0.189-0.34l0.246-0.278c0.177-0.167,0.467-0.293,0.812-0.349c0.211-0.037,0.44-0.058,0.67-0.061
				l0.305,0.23c0.44,0.281,1.103,0.436,1.789,0.421c0.518-0.009,1.02-0.08,1.48-0.201l0.317-0.089l0.131,0.214
				c0.081,0.116,0.238,0.214,0.44,0.272c0.366,0.109,0.767,0.184,1.186,0.217c0.881,0.062,1.705,0.272,2.329,0.609
				c0.344,0.182,0.662,0.375,0.946,0.588l0.357-0.216c0.469-0.316,0.897-0.646,1.293-0.99c0.529-0.475,1.158-0.911,1.877-1.307
				c1.226-0.642,2.785-1.068,4.479-1.229c0.93-0.091,1.866-0.17,2.797-0.236c0.683-0.048,1.359-0.128,2.015-0.229
				c0.297-0.048,0.58-0.12,0.831-0.21l0.279-0.132c0.144-0.094,0.217-0.22,0.2-0.341c-0.01-0.066-0.038-0.133-0.083-0.194
				c-0.079-0.095-0.167-0.184-0.273-0.268l0.557-0.033l4.797-0.147c1.167-0.043,2.322-0.162,3.447-0.352
				c0.591-0.109,1.152-0.267,1.661-0.465l-0.027-0.245c-0.094-0.792,0.4-1.571,1.38-2.167c0.347-0.213,0.714-0.418,1.093-0.613
				c0.224-0.119,0.429-0.245,0.625-0.378c0.171-0.12,0.313-0.254,0.418-0.397c0.089-0.143,0.122-0.298,0.089-0.454l0.4,0.09
				c0.229,0.07,0.423,0.169,0.574,0.289c0.151,0.126,0.262,0.264,0.35,0.404c0.135,0.246,0.234,0.498,0.307,0.752
				c0.084,0.271,0.194,0.538,0.33,0.801c0.138,0.266,0.36,0.514,0.662,0.731c0.212,0.15,0.48,0.283,0.774,0.387l0.141-0.174
				c0.355-0.433,0.919-0.802,1.638-1.073c1.135-0.383,2.534-0.474,3.81-0.247c0.228,0.035,0.452,0.082,0.663,0.133l0.161-0.161
				c0.55-0.536,1.353-0.983,2.316-1.309c1.177-0.37,2.621-0.406,3.857-0.098c0.378,0.092,0.746,0.197,1.09,0.326l0.207-0.157
				c0.563-0.438,1.349-0.776,2.252-0.985c0.857-0.183,1.814-0.177,2.666,0.022l0.214-0.146c1.029-0.751,1.693-1.632,1.91-2.558
				c0.222-0.938,0.339-1.88,0.351-2.824c0.023-0.748,0.167-1.493,0.428-2.229c0.28-0.835,0.999-1.608,2.057-2.231
				c0.239-0.134,0.479-0.26,0.747-0.377c0.229-0.099,0.373-0.242,0.395-0.401l-0.033-0.237c-0.089-0.191-0.223-0.38-0.402-0.554
				l-0.986-0.949c-0.35-0.321-0.617-0.666-0.796-1.025c-0.133-0.28-0.117-0.574,0.039-0.85c0.162-0.247,0.447-0.471,0.808-0.645
				l0.339-0.152l-0.032,0.188c-0.052,0.379,0.116,0.759,0.46,1.091c0.19,0.174,0.407,0.344,0.641,0.497l1.114,0.705
				c0.363,0.237,0.658,0.5,0.875,0.785c0.301,0.46,0.307,0.963,0.022,1.426l0.507-0.188c0.962-0.395,1.564-0.984,1.67-1.635
				c0.072-0.46,0.032-0.924-0.122-1.378l-0.558-1.598c-0.112-0.296-0.161-0.597-0.155-0.896c0.038-0.333,0.173-0.656,0.401-0.966
				c0.096-0.135,0.189-0.266,0.296-0.396l0.233,0.167c1.433,1.067,2.11,2.372,1.92,3.687c-0.077,0.651-0.211,1.301-0.401,1.946
				c-0.076,0.313-0.122,0.633-0.122,0.953c-0.004,0.275,0.083,0.554,0.263,0.813c0.234,0.325,0.667,0.602,1.238,0.78l0.389,0.161
				c0.284,0.148,0.447,0.358,0.43,0.575c-0.005,0.146-0.051,0.29-0.135,0.434c-0.087,0.149-0.196,0.304-0.305,0.452
				c-0.112,0.151-0.212,0.305-0.313,0.461c-0.082,0.146-0.139,0.299-0.161,0.454c-0.026,0.226,0.1,0.448,0.366,0.629l0.358,0.188
				l0.09-0.202c0.065-0.155,0.177-0.307,0.323-0.443c0.155-0.135,0.367-0.25,0.612-0.335l0.641-0.188
				c0.251-0.065,0.484-0.156,0.692-0.264c0.211-0.111,0.377-0.246,0.478-0.396c0.089-0.136,0.163-0.271,0.206-0.417
				c0.039-0.079,0.083-0.161,0.134-0.243c0.023-0.039,0.062-0.082,0.094-0.121c0.118-0.119,0.307-0.208,0.536-0.261l0.156,0.203
				c0.211,0.273,0.352,0.562,0.407,0.854c0.043,0.299-0.027,0.598-0.223,0.876c-0.151,0.222-0.323,0.435-0.519,0.646
				c-0.062,0.061-0.089,0.127-0.1,0.194c-0.016,0.099-0.011,0.198,0.016,0.299c0.255,0.771,1.37,1.377,2.801,1.525l-0.104,0.292
				c-0.028,0.229,0.016,0.46,0.117,0.686c0.212,0.483,0.602,0.94,1.137,1.346l0.385,0.233l0.033-0.188
				c0.038-0.244,0.116-0.484,0.232-0.723l0.128-0.2c0.124-0.153,0.412-0.249,0.719-0.234c0.174,0.006,0.342-0.018,0.475-0.07
				c0.14-0.052,0.233-0.128,0.273-0.217l0.457,0.125c1.138,0.268,2.401,0.359,3.632,0.265c1.093-0.079,2.167-0.197,3.229-0.351
				c1.069-0.148,2.172-0.238,3.283-0.268c1.547-0.024,3.061,0.235,4.299,0.738c0.924,0.374,2.134,0.469,3.214,0.246
				c1.386-0.287,2.513-0.853,3.13-1.577c0.137-0.156,0.225-0.323,0.274-0.494l0.323,0.096c0.813,0.205,1.682,0.321,2.573,0.346
				l-0.188-0.308c-0.195-0.342-0.274-0.701-0.229-1.062c0.033-0.229,0.165-0.45,0.4-0.646c0.25-0.206,0.624-0.359,1.058-0.441
				l0.246,0.131c1.063,0.592,1.547,1.413,1.31,2.224c-0.035,0.143-0.084,0.282-0.151,0.421l0.407,0.056
				c0.653,0.111,1.177,0.369,1.432,0.705c0.168,0.228,0.285,0.462,0.34,0.704l0.222,0.98c0.068,0.258,0.189,0.511,0.375,0.75
				c0.294,0.382,0.852,0.688,1.548,0.855c0.673,0.154,1.386,0.242,2.116,0.254c0.497,0.019,0.992,0.019,1.488,0l0.096,0.229
				c0.109,0.393,0.171,0.791,0.171,1.188c0.006,0.296,0.057,0.591,0.146,0.882c0.061,0.196,0.184,0.386,0.361,0.554
				c0.184,0.171,0.45,0.311,0.769,0.407l0.423-0.106c0.762-0.195,1.56-0.352,2.38-0.457c0.7-0.082,1.414-0.114,2.132-0.096
				l0.308,0.093c0.544,0.177,1.074,0.369,1.592,0.573c0.424,0.164,0.871,0.312,1.339,0.438c0.445,0.122,0.924,0.195,1.421,0.219
				c0.718,0.009,1.427-0.119,1.988-0.364c0.522-0.232,0.964-0.519,1.291-0.842l0.987-0.969l0.022,0.196
				c0.077,0.455,0.296,0.896,0.64,1.313c0.313,0.374,0.842,0.681,1.516,0.873c0.625,0.159,1.316,0.215,1.995,0.159
				c0.83-0.062,1.638-0.194,2.379-0.396l0.563-0.15l0.022,0.214c0.09,0.297,0.279,0.582,0.574,0.835
				c0.523,0.442,1.158,0.847,1.876,1.196c1.204,0.582,2.437,1.148,3.693,1.698c0.725,0.32,1.382,0.68,1.972,1.071
				c0.313,0.209,0.536,0.441,0.675,0.697c0.057,0.112,0.078,0.229,0.068,0.344l0.342-0.056c2.56-0.422,4.955-1.098,7.043-1.994
				l0.987-0.41l0.428,0.169c0.334,0.094,0.702,0.146,1.074,0.161c0.551,0.021,1.115,0.021,1.665-0.005
				c0.892-0.038,1.783-0.038,2.668-0.008c1.644,0.064,3.143,0.521,4.084,1.242c0.353,0.27,0.657,0.55,0.914,0.849l0.399-0.125
				c3.035-0.981,4.863-2.76,4.791-4.661l-0.039-0.271c-0.13-0.444-0.115-0.902,0.046-1.347c0.217-0.497,0.675-0.954,1.325-1.323
				c0.705-0.395,1.492-0.736,2.344-1.028c0.101-0.033,0.186-0.078,0.254-0.129c0.09-0.071,0.154-0.15,0.193-0.23
				c0.129-0.259,0.135-0.531,0.018-0.797c-0.057-0.161-0.162-0.313-0.317-0.455l-0.233-0.139l-0.014,0.18
				c-0.055,0.235-0.211,0.463-0.449,0.661c-0.34,0.271-0.757,0.511-1.227,0.718c-0.734,0.323-1.486,0.639-2.244,0.942
				c-0.634,0.255-1.198,0.553-1.693,0.882c-0.541,0.369-0.808,0.832-0.745,1.3c0.025,0.153,0.084,0.305,0.167,0.448l-0.307-0.113
				c-0.624-0.207-1.358-0.295-2.083-0.247c-0.391,0.024-0.775,0.066-1.146,0.126l-1.132,0.179c-0.362,0.058-0.736,0.093-1.119,0.109
				c-0.708,0.028-1.411-0.088-1.966-0.322c-0.446-0.191-0.837-0.421-1.148-0.68l-0.295-0.243l0.04,0.24
				c0.06,0.311,0.077,0.621,0.044,0.931c-0.027,0.36-0.228,0.712-0.582,1.021c-0.343,0.269-0.812,0.489-1.364,0.634
				c-0.345,0.102-0.708,0.18-1.081,0.239l-0.373-0.125c-1.103-0.361-2.093-0.815-2.924-1.348c-0.852-0.573-1.398-1.262-1.589-1.985
				c-0.061-0.174-0.104-0.352-0.138-0.529l-0.392,0.146c-0.958,0.354-2.105,0.535-3.276,0.512c-0.907-0.016-1.82-0.06-2.724-0.122
				c-0.813-0.052-1.583-0.219-2.247-0.479c-0.867-0.346-1.659-0.746-2.343-1.195l-2.574-1.633c-0.569-0.343-1.215-0.647-1.928-0.906
				c-0.635-0.229-1.382-0.361-2.149-0.374c-0.695,0.006-1.376,0.104-1.982,0.282l-0.018-0.229c-0.073-0.392-0.44-0.753-1.008-0.998
				c-0.396-0.174-0.823-0.323-1.281-0.445c-0.769-0.202-1.531-0.415-2.285-0.64c-0.941-0.275-1.736-0.682-2.316-1.168
				c-0.519-0.499-0.808-1.063-0.83-1.634c-0.026-0.348,0-0.697,0.084-1.044l-0.223,0.305c-0.418,0.552-1.226,0.985-2.24,1.217
				c-0.68,0.137-1.401,0.188-2.128,0.15c-1.042-0.039-1.981-0.354-2.523-0.838c-0.183-0.175-0.352-0.361-0.488-0.554
				c-0.223-0.326-0.491-0.642-0.797-0.944c-0.591-0.542-1.422-0.997-2.417-1.322c-1.21-0.391-2.507-0.695-3.861-0.904
				c-0.329-0.051-0.636-0.138-0.896-0.255c-0.206-0.101-0.369-0.227-0.469-0.362c-0.096-0.144-0.156-0.285-0.172-0.433
				c-0.028-0.222-0.017-0.439,0.033-0.659c0.413-1.666-0.184-3.358-1.7-4.831l-0.334-0.319l0.079,0.227
				c0.386,1.09,0.279,2.213-0.294,3.273c-0.764,1.376-2.938,2.396-5.576,2.605h-0.335c-0.953-0.015-1.898-0.085-2.819-0.216
				c-0.779-0.105-1.569-0.202-2.36-0.286c-0.992-0.105-2.007-0.102-2.992,0.013c-0.44,0.06-0.87,0.141-1.277,0.246l-0.466,0.041
				c-0.641,0.049-1.3,0.044-1.938-0.014c-0.597-0.056-1.165-0.19-1.632-0.396c-0.435-0.177-0.813-0.391-1.119-0.631
				c-0.369-0.324-0.56-0.693-0.536-1.071c0.01-0.296,0.07-0.59,0.179-0.88c0.167-0.439,0.289-0.883,0.358-1.331
				c0.095-0.889-0.068-1.779-0.48-2.646c-0.223-0.522-0.472-1.045-0.757-1.563l-0.063,0.315c-0.094,0.438-0.333,0.868-0.7,1.269
				c-0.283,0.297-0.719,0.547-1.254,0.714c-0.406,0.114-0.868,0.167-1.325,0.151c-1.971-0.054-3.799-0.568-4.995-1.411
				c-0.079-0.056-0.141-0.112-0.195-0.176c-0.079-0.093-0.147-0.188-0.206-0.282c-0.691-1.311-0.686-2.7,0.016-4.008
				c0.641-1.198,1.414-2.377,2.328-3.523c0.38-0.515,0.729-1.029,1.059-1.552c0.624-1.171,0.729-2.399,0.306-3.597l-1.135-3.043
				c-0.769-2.061-0.4-4.195,1.059-6.145c0.106-0.134,0.228-0.262,0.351-0.393l-0.491,0.168c-0.724,0.297-1.304,0.695-1.655,1.146
				c-0.563,0.725-0.907,1.492-1.031,2.273c-0.223,1.543-0.266,3.091-0.14,4.638c0.044,0.729,0.018,1.455-0.079,2.183
				c-0.043,0.256-0.132,0.515-0.26,0.763c-0.547,0.827-1.561,1.548-2.892,2.06c-0.757,0.289-1.661,0.444-2.59,0.44
				c-0.852-0.021-1.671-0.171-2.363-0.437l-0.265-0.172c-1.188-0.843-1.957-1.83-2.252-2.871c-0.368-1.351-0.46-2.718-0.278-4.076
				c0.163-1.226,0.217-2.449,0.163-3.676c-0.034-0.641-0.234-1.271-0.608-1.879c-0.206-0.314-0.507-0.609-0.879-0.878
				c-1.579-1.026-2.04-2.418-1.209-3.673c0.184-0.318,0.412-0.625,0.708-0.918c0.206-0.199,0.484-0.377,0.819-0.518l-0.335,0.055
				c-0.301,0.041-0.596,0.091-0.892,0.143c-0.544,0.094-1.042,0.266-1.42,0.497c-0.345,0.227-0.635,0.475-0.853,0.741
				c-0.161,0.184-0.312,0.371-0.444,0.564c-0.23,0.326-0.291,0.683-0.179,1.026c0.149,0.476,0.401,0.935,0.745,1.375
				c0.485,0.634,0.931,1.271,1.349,1.915c0.295,0.482,0.458,0.992,0.463,1.501c-0.005,0.142-0.028,0.28-0.073,0.418
				c-0.021,0.05-0.045,0.103-0.079,0.149c-0.073,0.113-0.16,0.229-0.255,0.34c-0.859,1.132-1.579,2.292-2.15,3.479
				c-0.524,1.063-1.142,2.111-1.845,3.147c-0.256,0.36-0.562,0.711-0.93,1.044c-0.218,0.195-0.478,0.378-0.779,0.539
				c-0.173,0.086-0.363,0.158-0.574,0.218c-0.296,0.075-0.63,0.103-0.948,0.073c-0.634-0.049-1.247-0.165-1.788-0.35
				c-0.697-0.25-1.192-0.635-1.394-1.07c-0.217-0.479-0.261-0.979-0.111-1.467c0.068-0.289,0.167-0.575,0.307-0.86l-0.407,0.229
				c-0.746,0.424-1.281,0.941-1.554,1.508c-0.172,0.455-0.134,0.936,0.118,1.386c0.257,0.469,0.584,0.923,0.98,1.362
				c0.479,0.531,0.879,1.088,1.18,1.66c0.407,0.864,0.385,1.771-0.071,2.633c-0.257,0.502-0.529,1.002-0.83,1.498
				c-0.463,1.006-0.358,2.067,0.307,3.043c0.374,0.519,0.808,1.024,1.298,1.519c0.756,0.753,1.264,1.568,1.521,2.413
				c0.049,0.188,0.084,0.379,0.105,0.568c0.016,0.126,0.016,0.257,0,0.381c-0.01,0.085-0.041,0.166-0.078,0.25
				c-0.313,0.567-1.009,1.055-1.962,1.355c-0.568,0.174-1.231,0.239-1.882,0.193l-0.439-0.135c-0.486-0.14-0.914-0.313-1.299-0.522
				c-0.323-0.19-0.567-0.419-0.714-0.668c-0.228-0.393-0.378-0.793-0.467-1.199l-0.25-0.981l-0.189,0.159
				c-0.506,0.421-0.892,0.883-1.137,1.367c-0.352,0.749-0.088,1.543,0.725,2.182c0.461,0.377,1.013,0.718,1.649,1.015l-0.051,0.266
				c-0.401,1.426-1.492,2.768-3.164,3.896c-1.776,1.301-4.124,2.353-6.831,3.063c-2.606,0.599-5.524,0.685-8.238,0.236
				c-0.301-0.059-0.597-0.124-0.877-0.201c-0.228-0.062-0.439-0.136-0.646-0.218c-0.986-0.39-1.759-0.909-2.25-1.512
				c-0.367-0.519-0.523-1.072-0.45-1.626c0.065-0.599,0.172-1.192,0.321-1.781c0.206-0.871,0.213-1.75,0.016-2.621
				c-0.206-0.718-0.672-1.404-1.365-2.023c-0.401-0.369-0.767-0.745-1.103-1.133c-0.602-0.772-0.858-1.604-0.768-2.438
				c0.027-0.412,0.105-0.821,0.218-1.231l-0.291,0.253c-0.946,0.778-1.609,1.65-1.95,2.563c-0.228,0.874-0.161,1.764,0.206,2.624
				c0.496,1.196,1.125,2.375,1.896,3.533c0.25,0.461,0.339,0.943,0.24,1.424c-0.127,0.597-0.397,1.182-0.798,1.74
				c-0.478,0.658-0.92,1.322-1.314,1.995c-0.491,0.875-0.653,1.796-0.48,2.706l-0.295,0.139c-1.196,0.591-2.469,1.139-3.812,1.632
				c-1.063,0.397-2.27,0.664-3.548,0.783c-1.047,0.082-2.116,0.007-3.085-0.219c-0.15-0.035-0.29-0.073-0.423-0.119
				c-0.145-0.049-0.272-0.106-0.401-0.167c-0.501-0.245-0.903-0.549-1.166-0.884l-0.312,0.251c-0.405,0.382-0.641,0.811-0.689,1.248
				l-0.095,0.96c-0.021,0.311-0.139,0.611-0.344,0.898c-0.125,0.148-0.274,0.288-0.464,0.413c-1.459,1.003-3.515,1.707-5.827,1.995
				c-1.28,0.168-2.574,0.306-3.875,0.416c-1.06,0.092-2.102,0.248-3.093,0.467c-1.415,0.326-2.596,0.885-3.372,1.597l-0.457-0.085
				c-0.974-0.171-2.044-0.13-2.969,0.113c-0.519,0.137-1.013,0.302-1.481,0.486c-0.467,0.185-0.942,0.354-1.443,0.514
				c-0.589,0.188-1.264,0.285-1.949,0.289c-0.558-0.01-1.097-0.078-1.599-0.204c-0.507-0.119-0.984-0.273-1.427-0.451l-0.271-0.172
				c-0.608-0.323-1.304-0.584-2.073-0.782c-1.459-0.409-3.091-0.61-4.742-0.585c-0.829,0.022-1.643,0.143-2.384,0.347l0.474,0.064
				c2.756,0.343,5.388,0.945,7.772,1.776c1.614,0.609,3.002,1.378,4.083,2.269C298.272,336.749,298.74,337.105,299.225,337.456
				 M299.17,335.438c1.015-0.039,1.978-0.25,2.756-0.6c0.247-0.111,0.491-0.226,0.724-0.344c0.235-0.113,0.48-0.216,0.735-0.311
				c0.625-0.219,1.348-0.323,2.084-0.304c0.914,0.026,1.811,0.123,2.674,0.291l0.073-0.229c0.25-0.707,1.104-1.306,2.305-1.616
				c0.881-0.23,1.819-0.394,2.781-0.48l3.682-0.352c2.167-0.264,4.19-0.794,5.894-1.552c1.677-0.763,2.674-1.864,2.747-3.041
				l0.523,0.077c2.217,0.301,4.563,0.152,6.589-0.413c1.883-0.527,3.638-1.188,5.208-1.962l1.494-0.696l0.011-0.273
				c-0.005-1.052,0.222-2.102,0.684-3.124c0.125-0.242,0.269-0.479,0.438-0.714l0.167,0.274c0.506,0.672,1.337,1.255,2.411,1.694
				c1.205,0.531,2.642,0.884,4.174,1.022c3.458,0.32,7.007-0.025,10.025-0.984c3.727-1.053,6.757-2.693,8.669-4.705
				c0.847-0.92,1.182-1.949,0.969-2.97l0.35,0.001c0.914-0.001,1.823-0.098,2.665-0.286c1.242-0.296,2.209-0.853,2.674-1.541
				c0.496-0.745,0.651-1.537,0.461-2.317c-0.245-1.171-0.953-2.295-2.078-3.303c-0.964-0.843-1.403-1.826-1.25-2.813
				c0.106-0.697,0.334-1.391,0.67-2.069c0.26-0.554,0.455-1.114,0.583-1.687c0.146-0.635-0.027-1.277-0.497-1.861
				c-0.234-0.277-0.545-0.533-0.906-0.764l0.562,0.144c0.624,0.156,1.316,0.22,1.999,0.195c0.748-0.039,1.449-0.21,2.001-0.483
				c0.613-0.307,1.131-0.668,1.514-1.07c0.797-0.846,1.416-1.732,1.833-2.651l1.053-2.19l0.016,0.277
				c-0.006,1.334,0.189,2.665,0.575,3.982c0.317,1.084,1.137,2.109,2.373,2.981c0.551,0.365,1.203,0.688,1.927,0.952l0.375,0.104
				c1.887,0.43,4.056,0.326,5.77-0.271c1.046-0.364,1.934-0.845,2.596-1.411l-0.148,0.28l-2.296,3.412
				c-0.724,1.036-1.142,2.129-1.23,3.235c-0.138,1.951,1.67,3.795,4.757,4.829c1.292,0.437,2.853,0.571,4.334,0.39
				c0.536-0.075,1.047-0.192,1.515-0.353l0.145,0.257c0.056,0.183,0.062,0.367,0.012,0.549c-0.089,0.309-0.229,0.61-0.412,0.905
				c-0.273,0.438-0.47,0.878-0.591,1.331c-0.201,0.776,0.28,1.562,1.304,2.119c1.16,0.707,2.746,1.164,4.479,1.299
				c0.595,0.039,1.197,0.012,1.777-0.08c1.995-0.374,4.14-0.449,6.212-0.228l3.563,0.369c1.921,0.206,3.906-0.079,5.375-0.769
				c0.507-0.249,0.92-0.552,1.198-0.888l-0.067,0.205c-0.072,0.583,0.356,1.153,1.159,1.55c0.847,0.438,1.942,0.707,3.114,0.776
				c1.332,0.071,2.545,0.432,3.381,0.991c0.469,0.315,0.885,0.657,1.231,1.017c0.353,0.354,0.733,0.697,1.146,1.029
				c0.413,0.318,0.942,0.593,1.561,0.794c0.582,0.172,1.216,0.277,1.872,0.304c1.053,0.03,2.106-0.028,3.112-0.183l0.423-0.06
				l-0.039,0.253c-0.044,0.273,0.013,0.551,0.161,0.814c0.167,0.258,0.458,0.487,0.848,0.662c0.322,0.142,0.673,0.267,1.048,0.369
				l1.898,0.52c1.644,0.452,2.918,1.22,3.565,2.146l-0.161,0.159c-0.597,0.664-1.148,1.338-1.648,2.025
				c-0.136,0.179-0.291,0.352-0.445,0.525c-0.063,0.072-0.146,0.146-0.23,0.208c-0.088,0.064-0.176,0.12-0.283,0.172
				c-0.194,0.104-0.429,0.185-0.689,0.227c-0.218,0.034-0.447,0.035-0.668,0.004c-0.236-0.035-0.452-0.087-0.653-0.158
				c-0.345-0.123-0.668-0.263-0.969-0.413c-0.318-0.153-0.651-0.298-0.998-0.434c-0.212-0.082-0.444-0.147-0.69-0.198
				c-0.094-0.017-0.2-0.028-0.296-0.032c-0.185-0.011-0.375-0.016-0.563-0.01c-1.052,0.01-2.094,0.123-3.075,0.334
				c-0.396,0.09-0.763,0.213-1.087,0.366l-0.206-0.159c-0.127-0.144-0.199-0.292-0.233-0.445c-0.055-0.286-0.06-0.573-0.026-0.862
				l0.063-0.908c0-0.179-0.018-0.357-0.067-0.531c-0.026-0.088-0.067-0.167-0.117-0.245c-0.04-0.058-0.084-0.105-0.14-0.153
				c-0.128-0.105-0.323-0.18-0.547-0.205l-0.405-0.015c-0.746,0.037-1.503,0.025-2.244-0.032c-0.502-0.042-0.98-0.143-1.405-0.291
				c-0.328-0.121-0.596-0.285-0.773-0.477c-0.179-0.188-0.297-0.386-0.368-0.592c-0.068-0.21-0.129-0.423-0.169-0.634
				c-0.032-0.204-0.093-0.408-0.178-0.607c-0.066-0.183-0.21-0.354-0.405-0.51c-0.205-0.151-0.508-0.271-0.842-0.336l0.012-0.206
				c-0.012-1.166-0.697-2.3-1.973-3.247c-0.908-0.698-1.933-1.352-3.065-1.948l0.135,0.206c0.188,0.273,0.288,0.563,0.313,0.857
				c0.006,0.334-0.163,0.664-0.486,0.95c-0.144,0.125-0.29,0.247-0.456,0.363c-0.163,0.11-0.313,0.226-0.458,0.342
				c-0.139,0.11-0.255,0.229-0.351,0.356c-0.135,0.208-0.157,0.435-0.063,0.647c0.006,0.014-0.006,0.023-0.016,0.03
				c-0.022,0.011-0.043,0.012-0.063,0.006c-0.361-0.095-0.695-0.201-1.017-0.324c-0.173-0.067-0.358-0.134-0.542-0.19
				c-0.201-0.061-0.407-0.104-0.623-0.127l-0.062,0.22l-0.173,0.843c-0.021,0.08-0.061,0.159-0.105,0.241
				c-0.105,0.172-0.223,0.345-0.354,0.512c-0.174,0.229-0.408,0.447-0.703,0.642c-0.358,0.238-0.882,0.396-1.449,0.43
				c-0.449,0.021-0.902-0.018-1.325-0.106c-0.36-0.074-0.708-0.164-1.037-0.276c-1.144-0.348-2.43-0.524-3.738-0.514
				c-1.538-0.008-3.058,0.132-4.506,0.411c-0.212,0.045-0.429,0.096-0.634,0.153c-0.318,0.084-0.653,0.14-1.004,0.165
				c-1.053,0.068-2.122,0.042-3.157-0.081c-1.623-0.168-3.183-0.482-4.603-0.932c-0.457-0.149-0.874-0.33-1.243-0.537
				c-0.144-0.085-0.277-0.181-0.378-0.281c-0.146-0.139-0.207-0.292-0.191-0.448c0.022-0.15,0.118-0.297,0.286-0.416
				c0.667-0.44,0.958-1.016,0.801-1.574c-0.112-0.309-0.307-0.605-0.58-0.883l-1.181-1.219c-0.413-0.436-0.683-0.901-0.8-1.387
				l-0.247,0.144c-0.206,0.134-0.378,0.279-0.507,0.438c-0.15,0.188-0.277,0.382-0.383,0.582c-0.067,0.109-0.146,0.217-0.236,0.322
				c-0.049,0.056-0.1,0.104-0.166,0.157c-0.184,0.142-0.458,0.24-0.776,0.276l-0.545-0.136c-0.445-0.144-0.797-0.363-0.979-0.627
				c-0.122-0.177-0.201-0.366-0.229-0.554c-0.045-0.434,0.004-0.859,0.139-1.281c0.134-0.416,0.245-0.835,0.34-1.253
				c0.039-0.309,0.021-0.62-0.067-0.926c-0.188-1.084-0.773-2.139-1.721-3.104c-0.428-0.435-0.807-0.88-1.125-1.34
				c-0.496-0.857-0.707-1.756-0.624-2.654c0.021-0.455,0.067-0.91,0.148-1.359l-0.148,0.15c-1.492,1.521-2.501,3.166-2.981,4.866
				c-0.228,1.021-0.144,2.053,0.228,3.063l-0.445-0.204c-0.39-0.217-0.683-0.479-0.862-0.767c-0.238-0.396-0.396-0.799-0.474-1.209
				c-0.065-0.293-0.144-0.585-0.245-0.875c-0.062-0.171-0.149-0.337-0.28-0.495c-0.111-0.144-0.272-0.273-0.478-0.383l-0.346-0.134
				l0.029,0.217c-0.018,0.36-0.184,0.712-0.491,1.033c-0.406,0.414-0.863,0.812-1.375,1.188c-0.53,0.398-0.998,0.825-1.382,1.271
				c-0.684,0.806-0.696,1.729-0.039,2.536c0.441,0.566,1.036,1.094,1.771,1.57l-0.469,0.208c-1.102,0.567-1.864,1.306-2.182,2.109
				c-0.336,0.851-0.507,1.715-0.519,2.579c-0.018,0.88-0.125,1.757-0.325,2.626c-0.166,0.71-0.594,1.396-1.27,2.01l-0.349-0.03
				c-0.988-0.047-1.973,0.11-2.748,0.438c-0.467,0.185-0.873,0.407-1.202,0.661l-0.295-0.063c-1.411-0.287-2.97-0.268-4.351,0.063
				c-1.397,0.314-2.602,0.842-3.454,1.512l-0.522-0.087c-0.871-0.089-1.766-0.058-2.613,0.09c-0.331,0.059-0.648,0.146-0.925,0.259
				c-0.179,0.07-0.33,0.166-0.428,0.275l-0.178-0.22c-0.407-0.516-0.926-1.006-1.539-1.461c-0.718-0.524-1.738-0.909-2.908-1.096
				l-0.178,0.292c-0.306,0.495-0.779,0.963-1.386,1.371c-0.352,0.223-0.763,0.421-1.214,0.583l-0.737,0.284
				c-0.522,0.199-0.908,0.485-1.102,0.813c-0.196,0.318-0.296,0.653-0.301,0.993l-0.013,0.264l-0.372,0.109
				c-1.532,0.384-3.198,0.584-4.886,0.589c-1.008,0.009-2.006-0.027-2.997-0.109c-0.513-0.04-1.03-0.068-1.543-0.083
				c-0.25-0.005-0.496,0-0.746,0.015c-0.317,0.024-0.597,0.11-0.803,0.242c-0.17,0.114-0.24,0.263-0.184,0.404
				c0.084,0.183,0.224,0.357,0.401,0.517c0.122,0.114,0.252,0.229,0.391,0.336l-0.585,0.055c-2.957,0.308-5.78,0.925-8.294,1.819
				c-0.564,0.222-1.043,0.502-1.41,0.82c-0.355,0.332-0.752,0.652-1.174,0.961l-0.268,0.189l-0.162-0.181
				c-0.167-0.148-0.396-0.271-0.674-0.355c-0.08-0.025-0.162-0.047-0.25-0.065c-0.291-0.063-0.591-0.124-0.892-0.185
				c-0.301-0.054-0.602-0.126-0.88-0.219c-0.431-0.153-0.764-0.376-0.959-0.635l-0.167-0.26l-0.553,0.153l-0.507,0.225
				c-0.282,0.129-0.625,0.223-0.984,0.273c-0.892,0.111-1.81-0.098-2.295-0.515c-0.179-0.147-0.317-0.313-0.417-0.48l-0.407,0.071
				c-0.725,0.168-1.371,0.423-1.888,0.744c-0.886,0.517-1.532,1.136-1.888,1.809c-0.062,0.136-0.104,0.276-0.123,0.419l-0.244,0.13
				c-1.343,0.624-3.021,1.008-4.786,1.095c-0.613,0.049-1.243,0.055-1.86,0.025c-1.042-0.063-2.01-0.325-2.713-0.741
				C299.983,336.186,299.524,335.827,299.17,335.438 M449.379,326.144c0.15-0.071,0.339-0.115,0.535-0.13
				c0.217-0.016,0.445,0.003,0.646,0.053c0.229,0.06,0.446,0.139,0.642,0.225c0.484,0.229,0.936,0.48,1.343,0.751
				c0.449,0.288,0.901,0.564,1.375,0.836c0.211,0.122,0.434,0.229,0.674,0.338l-0.301,0.206c-0.207,0.151-0.418,0.302-0.646,0.447
				c-0.554,0.354-1.338,0.587-2.197,0.641c-0.293,0.02-0.594,0.023-0.891,0.02l-0.439-0.165c-0.151-0.092-0.273-0.19-0.368-0.301
				c-0.295-0.369-0.486-0.76-0.546-1.156c-0.121-0.516-0.094-1.033,0.079-1.542L449.379,326.144 M455.541,328.455
				c0.299,0.238,0.667,0.452,1.095,0.631c1.64,0.658,3.557,1.09,5.583,1.254c0.871,0.078,1.744,0.077,2.606-0.009
				c0.312-0.036,0.619-0.092,0.901-0.168l0.504-0.176l0.199,0.295c0.268,0.442,0.641,0.864,1.104,1.258
				c0.436,0.327,0.964,0.618,1.563,0.858c0.396,0.164,0.798,0.327,1.209,0.484l-0.396,0.124c-0.557,0.188-1.075,0.4-1.554,0.64
				c-0.462,0.22-0.952,0.422-1.471,0.601c-0.679,0.216-1.427,0.371-2.2,0.462l-0.161-0.18c-0.38-0.352-0.869-0.666-1.455-0.926
				c-0.757-0.343-1.542-0.666-2.355-0.973c-1.319-0.498-2.483-1.109-3.436-1.812C456.391,330.109,455.795,329.302,455.541,328.455
				 M475.287,332.931c0.475-0.056,0.932-0.145,1.365-0.256c0.408-0.104,0.741-0.271,0.963-0.481c0.119-0.125,0.22-0.252,0.296-0.387
				l0.14-0.213l0.43,0.1c0.291,0.046,0.59,0.058,0.89,0.037c0.317-0.025,0.63-0.064,0.926-0.117l0.951-0.182
				c0.325-0.059,0.649-0.105,0.976-0.147c0.483-0.062,0.991-0.061,1.478,0.01c0.47,0.076,0.897,0.22,1.229,0.408
				c0.28,0.151,0.524,0.319,0.736,0.502l-0.105,0.282c-0.278,0.532-0.746,1.032-1.385,1.465c-0.19,0.121-0.408,0.229-0.654,0.317
				l-0.443,0.1l-0.302-0.236c-0.553-0.364-1.286-0.644-2.122-0.797c-1.221-0.234-2.512-0.358-3.812-0.375
				C476.324,332.943,475.806,332.936,475.287,332.931"/>
			<path fill="#FFF100" stroke="#FF1D25" d="M295.504,328.872c-0.787-1.441-1.348-2.912-1.678-4.399
				c-0.183-0.809-0.083-1.627,0.292-2.417c0.294-0.604,0.952-1.138,1.875-1.519l0.374-0.135c-0.506,0.474-0.808,0.997-0.88,1.541
				c-0.065,0.554-0.005,1.111,0.18,1.659c0.35,0.922,0.74,1.839,1.163,2.751c0.296,0.656,0.447,1.332,0.453,2.011
				c0.011,0.824-0.522,1.632-1.515,2.266l-0.223,0.135l0.09-0.343C295.787,329.905,295.743,329.377,295.504,328.872"/>
			<path fill="#FFF100" stroke="#FF1D25" d="M323.548,322.279c0.132-0.616,0.149-1.233,0.032-1.851
				c-0.279-1.105-0.708-2.2-1.288-3.271c-0.428-0.769-0.7-1.558-0.822-2.354c-0.195-0.939,0.071-1.889,0.774-2.757
				c0.423-0.477,0.897-0.937,1.416-1.386c1.036-0.894,1.687-1.901,1.888-2.95l0.033-0.18c0.453,0.628,0.598,1.303,0.44,1.969
				c-0.161,0.689-0.435,1.364-0.812,2.026c-0.423,0.726-0.752,1.461-0.987,2.208c-0.017,0.082-0.027,0.16-0.021,0.242
				c0.004,0.156,0.021,0.314,0.056,0.474c0.211,0.907,0.484,1.812,0.813,2.709c0.328,0.891,0.447,1.803,0.335,2.705
				C325.279,320.757,324.626,321.603,323.548,322.279"/>
			<path fill="#FFF100" stroke="#FF1D25" d="M337.902,301.549c-0.005-0.509-0.062-1.021-0.167-1.525
				c-0.185-1.146-0.891-2.242-2.062-3.203c-0.272-0.223-0.519-0.457-0.735-0.697c-0.211-0.247-0.334-0.514-0.373-0.783
				c-0.035-0.431,0.072-0.859,0.317-1.271c0.891-1.629,1.476-3.301,1.744-4.993l0.05-0.32c-0.033,1.654,0.339,3.304,1.103,4.905
				c0.562,1.109,1.042,2.23,1.438,3.361C339.769,298.564,339.3,300.166,337.902,301.549"/>
			<path fill="#FFF100" stroke="#FF1D25" d="M344.52,306.123c-0.34-1.489-0.446-2.988-0.311-4.484
				c0.061-0.814,0.405-1.613,1.023-2.356c0.475-0.569,1.294-1.04,2.325-1.33l0.401-0.103c-0.641,0.422-1.099,0.916-1.337,1.442
				c-0.234,0.544-0.339,1.099-0.322,1.653c0.065,0.941,0.171,1.882,0.311,2.816c0.09,0.678,0.033,1.354-0.173,2.022
				c-0.25,0.813-1.031,1.56-2.206,2.093l-0.262,0.116l0.1-0.146C344.458,307.302,344.615,306.71,344.52,306.123"/>
			<path fill="#FFF100" stroke="#FF1D25" d="M377.222,278.194c-0.32-0.198-0.563-0.426-0.738-0.674
				c-0.472-0.738-0.5-1.541-0.081-2.293l1.375-2.41c0.59-0.958,0.884-1.96,0.884-2.971c-0.081-1.228-0.45-2.443-1.106-3.623
				l-0.112-0.216l2.635,2.694c1.047,1.014,1.348,2.203,0.835,3.329c-0.372,0.796-0.903,1.568-1.57,2.306
				c-0.662,0.718-1.231,1.456-1.718,2.212C377.297,277.077,377.164,277.637,377.222,278.194"/>
			<path fill="#FFF100" stroke="#FF1D25" d="M385.058,266.393c-0.117-1.109-0.601-2.198-1.426-3.215
				c-0.401-0.505-0.708-1.029-0.902-1.568c-0.697-2.269-0.284-4.596,1.214-6.75c0.512-0.815,1.258-1.585,2.201-2.284
				c0.429-0.308,0.73-0.667,0.864-1.05c0.161-0.497,0.166-1.008,0.016-1.508c-0.296-0.929-0.774-1.837-1.427-2.714
				c-0.572-0.775-1.113-1.56-1.62-2.35l-0.099-0.19c2.211,1.322,3.844,2.891,4.801,4.59c1.174,1.944,0.797,4.06-1.042,5.849
				c-0.358,0.335-0.692,0.679-0.999,1.028c-1.548,1.641-2.01,3.516-1.296,5.313c0.228,0.582,0.429,1.165,0.607,1.748
				C386.278,264.354,385.968,265.439,385.058,266.393"/>
			<path fill="#FFF100" stroke="#FF1D25" d="M386.87,277.685c-0.748-1.272-0.775-2.632-0.089-3.913
				c0.707-1.316,1.632-2.598,2.757-3.827l-0.345,0.22c-1.247,0.743-2.457,1.51-3.604,2.297c-2.368,1.797-3.275,4.033-2.517,6.195
				c0.545,1.521,1.185,3.034,1.921,4.532c0.653,1.358,0.959,2.761,0.903,4.164c-0.089,1.242-0.779,2.459-2.016,3.515l0.382-0.109
				c2.163-0.725,3.896-1.77,5.005-3.005c0.822-0.893,1.419-1.837,1.766-2.813c0.199-0.791,0.077-1.599-0.38-2.355
				c-0.586-0.956-1.304-1.889-2.151-2.789C387.877,279.109,387.336,278.403,386.87,277.685 M388.54,284.617
				c-0.235,0.533-0.569,1.055-0.986,1.554c-0.118,0.138-0.255,0.269-0.413,0.392l0.09-0.254c0.168-0.729,0.101-1.467-0.2-2.182
				c-0.413-0.979-0.881-1.945-1.403-2.907c-0.401-0.742-0.663-1.509-0.787-2.279c-0.062-0.446,0-0.897,0.167-1.331l0.045,0.184
				c0.206,0.585,0.523,1.153,0.946,1.704c0.724,0.94,1.412,1.889,2.052,2.848c0.313,0.494,0.519,1.006,0.601,1.527
				C388.691,284.12,388.652,284.372,388.54,284.617"/>
			<path fill="#FFF100" stroke="#FF1D25" d="M393.115,248.344c1.263,1.609,1.576,3.385,0.895,5.091
				c-0.612,1.559-1.424,3.092-2.433,4.589l0.149-0.183c1.032-1.232,2.295-2.405,3.778-3.497c0.813-0.603,1.493-1.251,2.026-1.936
				c1.003-1.515,1.164-3.146,0.479-4.706c-0.714-1.63-1.638-3.227-2.78-4.785c-1.248-1.714-2.184-3.496-2.796-5.311
				c-0.597-1.807-0.213-3.67,1.109-5.365c0.06-0.073,0.121-0.146,0.188-0.218c0.087-0.09,0.172-0.18,0.267-0.27
				c1.822-1.619,2.384-3.559,1.548-5.401c-0.25-0.505-0.59-0.997-1.03-1.463l0.1,0.221c0.497,1.344,0.306,2.737-0.535,4.027
				c-0.903,1.38-1.944,2.729-3.119,4.049c-1.805,2.034-2.931,4.225-3.326,6.466c-0.146,1.334,0.284,2.666,1.247,3.895
				c1.003,1.252,2.095,2.48,3.275,3.686C392.496,247.6,392.813,247.97,393.115,248.344 M389.448,239.952
				c0.189-0.681,0.49-1.348,0.893-2c0.117-0.175,0.249-0.345,0.428-0.509l-0.039,0.177c-0.129,1.152,0.166,2.305,0.874,3.393
				c0.826,1.289,1.711,2.568,2.652,3.833c0.511,0.73,0.89,1.485,1.131,2.255c0.106,0.396,0.122,0.796,0.039,1.192l-0.095-0.225
				c-0.317-0.608-0.739-1.195-1.279-1.754l-3.193-3.353c-0.54-0.594-0.962-1.217-1.271-1.854
				C389.42,240.728,389.376,240.338,389.448,239.952"/>
			<path fill="#FFF100" stroke="#FF1D25" d="M396.334,267.512c-0.14-0.212-0.308-0.418-0.501-0.616l-0.781-0.777
				c-0.155-0.154-0.277-0.314-0.377-0.479c-0.596-1.1-0.554-2.268,0.128-3.354c0.606-0.94,1.393-1.84,2.351-2.694
				c1.135-1.005,2.167-2.049,3.073-3.12c1.06-1.241,1.438-2.618,1.075-3.967l-0.077-0.245c1.286,0.972,1.927,2.148,1.815,3.339
				c-0.149,0.965-0.608,1.908-1.348,2.794l-3.125,3.647C397.08,263.751,396.311,265.62,396.334,267.512"/>
			<path fill="#FFF100" stroke="#FF1D25" d="M396.245,280.212c-0.803-1.436-1.369-2.908-1.701-4.398
				c-0.187-0.808-0.082-1.627,0.292-2.414c0.29-0.605,0.945-1.137,1.86-1.52l0.361-0.136c-0.496,0.474-0.793,1-0.858,1.542
				c-0.062,0.557,0.006,1.112,0.195,1.664c0.352,0.918,0.741,1.837,1.164,2.749c0.295,0.658,0.441,1.332,0.441,2.007
				c0.01,0.829-0.537,1.63-1.528,2.267l-0.228,0.137l0.089-0.342C396.484,281.25,396.456,280.725,396.245,280.212"/>
			<path fill="#FFF100" stroke="#FF1D25" d="M400.772,304.275l0.094-0.207c0.259-0.469,0.479-0.941,0.66-1.42l0.063-0.25
				c0.191-0.522,0.207-1.063,0.046-1.59c-0.195-0.625-0.422-1.246-0.686-1.863c-0.223-0.521-0.317-1.059-0.29-1.594
				c0.041-0.699,0.563-1.365,1.471-1.865l0.53-0.301c0.028-0.017,0.049-0.027,0.072-0.041c0.367-0.267,0.669-0.549,0.913-0.854
				c0.598-0.818,0.892-1.693,0.862-2.574c-0.042-1.031-0.192-2.063-0.455-3.085c-0.134-0.522-0.224-1.053-0.269-1.577
				c-0.043-0.443,0.067-0.89,0.316-1.311l0.158-0.202c-0.039,0.322-0.017,0.651,0.073,0.974c0.25,0.762,0.612,1.516,1.102,2.242
				c0.486,0.719,0.888,1.45,1.209,2.196c0.262,0.589,0.269,1.202,0.018,1.793c-0.291,0.617-0.72,1.208-1.271,1.771
				c-0.474,0.484-0.896,0.985-1.248,1.504c-0.522,0.74-0.563,1.563-0.111,2.319c0.468,0.788,0.551,1.628,0.244,2.438
				C403.71,302.092,402.5,303.299,400.772,304.275"/>
			<path fill="#FFF100" stroke="#FF1D25" d="M426.593,304.004c0.098-0.65-0.089-1.309-0.534-1.917
				c-0.277-0.348-0.601-0.683-0.974-1.007c-0.178-0.169-0.352-0.344-0.491-0.521c-0.227-0.271-0.347-0.564-0.347-0.861
				c0.024-0.396,0.185-0.78,0.486-1.137c1.981-2.371,2.98-4.943,2.919-7.541l-0.018-0.271c0.018,0.018,0.033,0.035,0.045,0.053
				l0.333,0.346c0.53,0.52,0.843,1.094,0.906,1.685c0.058,0.907-0.221,1.813-0.835,2.66c-0.45,0.737-0.604,1.515-0.456,2.286
				c0.139,0.762,0.34,1.52,0.591,2.273c0.217,0.617,0.291,1.244,0.217,1.869C428.349,302.716,427.688,303.463,426.593,304.004"/>
			<path fill="#FFF100" stroke="#FF1D25" d="M436.375,296.463c0.141-0.609,0.157-1.229,0.04-1.841
				c-0.279-1.101-0.707-2.19-1.293-3.254c-0.429-0.769-0.702-1.554-0.82-2.353c-0.192-0.939,0.074-1.896,0.776-2.764
				c0.429-0.479,0.9-0.938,1.42-1.393c1.048-0.887,1.705-1.892,1.929-2.939l0.032-0.177c0.436,0.629,0.569,1.303,0.407,1.97
				c-0.161,0.686-0.435,1.362-0.809,2.023c-0.428,0.727-0.739,1.464-0.962,2.209c-0.017,0.084-0.027,0.164-0.021,0.246
				c0.006,0.156,0.017,0.313,0.043,0.47c0.212,0.907,0.475,1.813,0.797,2.708c0.323,0.889,0.428,1.797,0.323,2.699
				C438.114,294.954,437.457,295.795,436.375,296.463"/>
			<path fill="#FFF100" stroke="#FF1D25" d="M476.149,325.755l-0.566-1.177c-0.357-0.705-0.57-1.428-0.629-2.156
				c-0.058-0.655,0.233-1.309,0.841-1.881c0.591-0.524,1.359-0.989,2.262-1.371l0.401-0.176c-0.741,0.682-1.114,1.461-1.07,2.247
				c0.052,0.635,0.201,1.268,0.439,1.889c0.201,0.523,0.34,1.059,0.4,1.591c0.117,1.025-0.534,2.032-1.815,2.798l-0.216,0.137
				c0.049-0.188,0.095-0.374,0.127-0.563C476.429,326.644,476.368,326.19,476.149,325.755"/>
			<path fill="#FFF100" stroke="#FF1D25" d="M498.794,331.887c0.536-1.714,1.489-3.383,2.844-4.962
				c0.44-0.519,0.759-1.063,0.941-1.622c0.199-0.725,0.174-1.465-0.08-2.186c-0.7-1.831-1.687-3.628-2.967-5.367l-1.062-1.63
				l0.04,0.243c0.339,2.263-0.223,4.535-1.643,6.669c-0.62,0.925-1.126,1.87-1.518,2.831c-0.429,1.507,0.041,3.043,1.337,4.397
				C497.254,330.853,497.959,331.399,498.794,331.887 M497.626,325.755c0.523-0.699,0.982-1.414,1.37-2.141
				c0.373-0.907,0.536-1.84,0.479-2.772l0.129,0.274c0.295,0.576,0.568,1.158,0.808,1.744c0.49,1.229,0.279,2.51-0.604,3.673
				c-0.409,0.558-0.768,1.126-1.058,1.702c-0.173,0.396-0.313,0.792-0.401,1.19l-0.153-0.188c-0.561-0.814-0.809-1.681-0.737-2.543
				C497.477,326.382,497.526,326.066,497.626,325.755"/>
			<path fill="#FFF100" stroke="#FF1D25" d="M501.782,314.86c-0.779-1.403-1.338-2.839-1.665-4.294
				c-0.479-1.792-0.206-3.616,0.79-5.347l0.202-0.288c-0.196,0.771-0.196,1.557,0.012,2.325c0.304,1.012,0.684,2.018,1.146,3.015
				c0.513,1.094,0.698,2.223,0.54,3.347l-0.07,0.291l-0.013,0.229c-0.105,0.356-0.271,0.703-0.513,1.04
				c-0.055,0.08-0.16,0.147-0.302,0.19c-0.026,0.011-0.064,0.011-0.1,0.003c-0.032-0.012-0.051-0.028-0.055-0.046
				C501.749,315.168,501.755,315.012,501.782,314.86"/>
			<path fill="#FFF100" stroke="#FF1D25" d="M507.04,333.519c1.715,1.124,4.611,1.511,7.114,0.947
				c2.262-0.426,4.096-1.331,5.073-2.507c0.013-0.021,0.047-0.038,0.091-0.048c0.038-0.008,0.084-0.005,0.116,0.004
				c0.307,0.08,0.585,0.188,0.822,0.318l0.604,0.338c0.167,0.087,0.373,0.157,0.59,0.207c0.139,0.034,0.293,0.045,0.443,0.027
				l-0.095-0.209c-0.066-0.183-0.071-0.37-0.006-0.55c0.078-0.171,0.229-0.329,0.44-0.461l0.252-0.141
				c0.033-0.02,0.081-0.027,0.134-0.024c0.055,0.003,0.099,0.02,0.127,0.042c0.206,0.17,0.363,0.358,0.451,0.558l0.072,0.216
				c0.04,0.119,0.163,0.229,0.357,0.296c0.167,0.063,0.377,0.082,0.573,0.045c0.606-0.112,1.269-0.088,1.843,0.063
				c0.319,0.086,0.613,0.193,0.876,0.318c0.426,0.207,0.839,0.424,1.235,0.649c0.271,0.151,0.563,0.296,0.864,0.431
				c0.439,0.199,0.951,0.35,1.504,0.438c0.406,0.057,0.827,0.063,1.24,0.035c1.455-0.099,2.938-0.028,4.344,0.196l3.049,0.527
				c0.945,0.177,1.928,0.274,2.926,0.287c0.771,0,1.531-0.09,2.233-0.259c2.113-0.548,4.398-0.874,6.739-0.966
				c1.91-0.03,3.812,0.161,5.573,0.559l1.095,0.237l-0.213-0.129c-1.724-0.957-4.065-1.522-6.545-1.573
				c-2.556-0.093-5.111,0.181-7.4,0.797c-0.413,0.115-0.802,0.258-1.151,0.422l-0.337-0.043c-0.819-0.112-1.566-0.341-2.162-0.661
				c-0.368-0.199-0.721-0.401-1.066-0.618c-1.425-0.831-3.318-1.39-5.401-1.573c-0.234-0.021-0.464-0.073-0.647-0.157
				c-0.213-0.096-0.385-0.217-0.498-0.354l-0.193-0.263c-0.122-0.152-0.308-0.287-0.54-0.397c-0.187-0.084-0.406-0.142-0.652-0.159
				c-0.283-0.02-0.58-0.012-0.864,0.019c-0.539,0.037-1.085,0.037-1.626,0.004c-0.217-0.016-0.433-0.046-0.635-0.098
				c-0.161-0.037-0.305-0.092-0.421-0.162c-2.163-1.151-3.044-2.837-2.303-4.431c0.083-0.175,0.188-0.349,0.317-0.519l-0.335,0.182
				l-0.729,0.422c-0.244,0.142-0.52,0.27-0.813,0.379c-0.267,0.104-0.573,0.165-0.901,0.186c-0.575,0.016-1.114-0.152-1.384-0.433
				c-0.122-0.132-0.218-0.273-0.261-0.422c-0.085-0.264-0.111-0.528-0.096-0.794c0.021-0.395,0.026-0.784,0.021-1.178
				c-0.017-0.278-0.085-0.558-0.224-0.826l-0.173-0.243l-0.104,0.315c-0.547,1.837-1.661,3.612-3.286,5.254
				c-1.526,1.54-4.066,2.716-7.132,3.303c-0.159,0.025-0.327,0.049-0.496,0.063c-0.145,0.013-0.297,0.013-0.44,0.006
				c-0.562-0.025-1.098-0.142-1.538-0.325c-0.455-0.186-0.862-0.405-1.201-0.653c-0.497-0.345-0.829-0.74-0.982-1.166
				c-0.16-0.459-0.249-0.925-0.26-1.391l-0.094-0.854l-0.054,0.203c-0.344,1.18-0.377,2.38-0.095,3.564
				C505.08,331.791,505.848,332.733,507.04,333.519 M508.222,332.498c1.493,0.178,3.065,0.053,4.407-0.352
				c1.414-0.431,2.667-1.006,3.675-1.689c1.601-1.07,2.941-2.239,4.013-3.486l0.218,0.206c0.213,0.165,0.508,0.294,0.853,0.374
				c0.402,0.08,0.857,0.065,1.237-0.043l0.1,0.259c0.551,1.275,1.633,2.466,3.164,3.485l-0.329,0.021
				c-0.266,0.02-0.527,0.049-0.783,0.09c-0.112,0.02-0.207,0.045-0.297,0.085l-0.222-0.275c-0.137-0.201-0.248-0.403-0.342-0.61
				c-0.095-0.206-0.194-0.413-0.312-0.615c-0.105-0.19-0.257-0.378-0.439-0.555l-0.313-0.229l-0.255,0.229
				c-0.218,0.15-0.479,0.287-0.753,0.41l-0.351,0.165l-0.163-0.313l-0.377-0.573l-0.142-0.31l-0.25,0.101
				c-0.344,0.164-0.646,0.354-0.885,0.563c-0.507,0.448-0.965,0.908-1.372,1.385c-0.457,0.517-1.006,1.006-1.647,1.461
				c-0.859,0.613-2.097,1.038-3.499,1.199c-0.662,0.067-1.348,0.088-2.027,0.058c-0.165-0.007-0.335-0.018-0.497-0.028
				c-0.05-0.004-0.104-0.01-0.155-0.018c-0.418-0.067-0.808-0.176-1.15-0.318c-0.259-0.1-0.484-0.21-0.698-0.331
				c-0.104-0.063-0.193-0.126-0.28-0.194C508.294,332.598,508.248,332.549,508.222,332.498 M527.74,331.645l1.054,0.01
				c0.4,0.002,0.786-0.025,1.165-0.083l0.145,0.183c0.391,0.447,1.06,0.806,1.89,1.014c0.507,0.127,1.047,0.227,1.594,0.289
				l1.644,0.217c0.524,0.076,1.024,0.194,1.484,0.349c0.311,0.111,0.592,0.248,0.813,0.407l-0.46-0.114
				c-1.066-0.255-2.224-0.376-3.388-0.354l-1.18,0.028c-0.356,0.012-0.714,0.01-1.063-0.012c-0.663-0.042-1.282-0.198-1.768-0.442
				c-0.534-0.271-0.981-0.582-1.336-0.922C528.12,332.024,527.925,331.837,527.74,331.645"/>
			<path fill="#FFF100" stroke="#FF1D25" d="M524.934,321.305c-1.95-1.374-2.807-3.106-2.384-4.821
				c0.232-0.694,0.545-1.385,0.94-2.063c1.053-1.781,1.477-3.659,1.239-5.526l-0.023-0.191l0.408,0.729
				c0.975,1.521,1.743,3.074,2.305,4.654c0.229,0.645,0.263,1.301,0.105,1.948c-0.146,0.497-0.396,0.979-0.745,1.443
				C525.891,318.715,525.271,319.998,524.934,321.305"/>
			<path fill="#FFF100" stroke="#FF1D25" d="M545.229,330.427c-0.013-0.374-0.033-0.754-0.073-1.129
				c-0.063-0.933-0.347-1.856-0.839-2.751c-0.272-0.432-0.622-0.851-1.036-1.249c-1.179-1.237-1.57-2.644-1.12-4.012
				c0.221-0.617,0.537-1.227,0.943-1.816c0.344-0.496,0.61-1.006,0.781-1.525l0.075-0.314c-0.026,1.655,0.355,3.305,1.135,4.905
				c0.558,1.109,1.043,2.231,1.445,3.363C547.09,327.441,546.629,329.045,545.229,330.427"/>
		</g>
	</g>
</g>
<g id="Layer_3">
</g>
<g id="Layer_1_1_">
	
		<radialGradient id="SVGID_1_" cx="453" cy="396" r="0" gradientTransform="matrix(1 0 0 1 168 -51)" gradientUnits="userSpaceOnUse">
		<stop  offset="0" style="stop-color:#FFFFFF"/>
		<stop  offset="0.0851" style="stop-color:#FFEDD8"/>
		<stop  offset="0.2082" style="stop-color:#FFD5A7"/>
		<stop  offset="0.3345" style="stop-color:#FFC17D"/>
		<stop  offset="0.462" style="stop-color:#FFB05B"/>
		<stop  offset="0.591" style="stop-color:#FFA340"/>
		<stop  offset="0.7222" style="stop-color:#FF9A2D"/>
		<stop  offset="0.8568" style="stop-color:#FF9522"/>
		<stop  offset="1" style="stop-color:#FF931E"/>
	</radialGradient>
	<path fill="url(#SVGID_1_)" stroke="#000000" stroke-miterlimit="10" d="M621,345"/>
	<path fill="none" stroke="#000000" stroke-miterlimit="10" d="M891,306.5"/>
	<rect x="282.101" y="351.59" fill="none" width="378.488" height="65.997"/>
	<text transform="matrix(1 0 0 1 282.1006 383.6055)" font-family="'CenturySchoolbook-BoldItalic'" font-size="48">FireSphere</text>
</g>
</svg>
